%
M48
M72
T01C0.03150
T02C0.03200
T03C0.04000
T04C0.04400
T05C0.05200
T06C0.05512
T07C0.11811
%
T01
X128195Y105941
X138195Y105941
X138195Y115941
X128195Y115941
X128195Y125941
X138195Y125941
X138195Y135941
X128195Y135941
T02
X156000Y141000
X156000Y101000
X176000Y66000
X196000Y56000
X196000Y46000
X196000Y36000
X176000Y26000
T03
X168200Y82100
X168200Y99900
X193800Y99900
X193800Y82100
X181000Y121000
X181000Y131000
X181000Y141000
T04
X156000Y66000
X156000Y26000
T05
X125500Y27500
X133500Y51000
X125500Y74500
X77500Y74500
X77500Y27500
T06
X31000Y51000
X31000Y71000
X31000Y106000
X31000Y126000
T07
X21000Y21000
X21000Y156000
X221000Y156000
X221000Y21000
M30
